<?xml version="1.0" encoding="utf-8"?>
<!-- Generator: Adobe Illustrator 16.0.0, SVG Export Plug-In . SVG Version: 6.00 Build 0)  -->
<!DOCTYPE svg PUBLIC "-//W3C//DTD SVG 1.1//EN" "http://www.w3.org/Graphics/SVG/1.1/DTD/svg11.dtd">
<svg version="1.1" id="Ebene_1" xmlns="http://www.w3.org/2000/svg" xmlns:xlink="http://www.w3.org/1999/xlink" x="0px" y="0px"
	 width="300px" height="300px" viewBox="0 0 300 300" enable-background="new 0 0 300 300" xml:space="preserve">
<path fill="#FFFFFF" d="M291.458,106.62c-0.606-9.601-12.813-10.832-23.382-10.832c-4.049,0-8.198,0.195-12.212,0.385
	c-3.552,0.168-6.906,0.327-9.796,0.327c-1.579,0-3.679-0.101-6.11-0.218c-3.215-0.154-6.86-0.329-10.508-0.329
	c-5.379,0-19.673,0-19.986,8.377c-0.229,6.118,4.266,8.746,8.231,11.065c2.098,1.226,4.107,2.401,5.49,4.012
	c-20.281,10.296-39.022,26.035-53.489,44.862c0.054-8.506-0.01-17.168-0.071-25.601c-0.116-16.184-0.238-32.89,0.465-48.524
	c0.947,0.378,1.982,0.857,3.047,1.351c3.081,1.429,6.268,2.906,9.273,2.906c2.697,0,4.862-1.241,6.263-3.589
	c3.04-5.102-1.304-11.711-4.476-16.537c-0.749-1.14-1.456-2.216-1.938-3.081c-3.453-6.204-6.341-11.71-9.133-17.036
	c-2.623-5.001-5.335-10.173-8.438-15.763c-0.395-0.709-0.852-1.604-1.382-2.639c-2.543-4.966-6.025-11.767-10.166-13.488
	c-1.483-0.617-2.944-0.929-4.343-0.929c-7.297,0-10.941,7.924-13.601,13.71c-0.581,1.263-1.129,2.455-1.623,3.348
	c-3.301,5.962-7.131,12.719-10.835,19.253c-2.533,4.467-5.032,8.875-7.318,12.951c-0.48,0.856-1.075,1.832-1.704,2.863
	c-3.335,5.462-7.485,12.259-4.75,17.278c1.325,2.434,3.455,3.719,6.159,3.719c2.888,0,6.005-1.43,9.02-2.812
	c1.33-0.61,2.688-1.233,3.9-1.658v74.57c-12.44-17.161-29.613-31.774-53.412-45.511c1.343-1.278,3.144-2.32,5.018-3.406
	c4.148-2.402,9.311-5.392,8.552-12.057c-0.841-7.382-13.4-8.329-24.248-8.329c-2.994,0-5.879,0.085-8.198,0.153
	c-1.661,0.048-3.095,0.091-4.148,0.091c-2.765,0-5.879-0.126-9.175-0.26c-3.688-0.15-7.502-0.305-11.298-0.305
	c-8.931,0-15.161,0.925-19.606,2.91c-2.765,1.236-4.518,3.102-5.211,5.546c-1.63,5.757,3.324,13.023,6.943,18.329
	c0.774,1.136,1.506,2.209,2.043,3.084c4.004,6.523,7.011,11.085,10.193,15.915c2.901,4.403,5.9,8.956,9.726,15.134
	c0.274,0.443,0.682,1.355,1.115,2.322c2.039,4.554,5.45,12.177,12.089,12.177c0.364,0,0.736-0.024,1.104-0.073
	c7.09-0.926,7.492-8.912,7.846-15.956c0.136-2.687,0.274-5.44,0.751-7.703c27.298,14.536,57.974,37.327,60.548,83.826
	c0.413,7.457,0.238,15.077,0.054,23.146c-0.17,7.439-0.346,15.131-0.056,23.089c0.041,1.102,0.946,1.975,2.049,1.975h56.229
	c1.101,0,2.005-0.869,2.049-1.969c0.321-8.065,0.126-15.951-0.062-23.577c-0.202-8.19-0.394-15.928,0.06-23.234
	c2.271-36.564,22.725-64.354,60.809-82.637c0.22,1.877,0.309,3.959,0.396,5.996c0.337,7.79,0.716,16.621,8.681,17.061
	c0.135,0.008,0.269,0.011,0.403,0.011l0,0c6.012,0,9.968-7.118,12.587-11.828c0.45-0.809,0.838-1.508,1.165-2.037
	c3.469-5.603,6.286-10.266,9.012-14.774c3.252-5.384,6.326-10.47,10.313-16.847c0.411-0.659,0.947-1.473,1.55-2.39
	C288.18,115.947,291.69,110.28,291.458,106.62z"/>
</svg>
