<?xml version="1.0" encoding="utf-8"?>
<!-- Generator: Adobe Illustrator 16.0.0, SVG Export Plug-In . SVG Version: 6.00 Build 0)  -->
<!DOCTYPE svg PUBLIC "-//W3C//DTD SVG 1.1//EN" "http://www.w3.org/Graphics/SVG/1.1/DTD/svg11.dtd">
<svg version="1.1" id="Ebene_1" xmlns="http://www.w3.org/2000/svg" xmlns:xlink="http://www.w3.org/1999/xlink" x="0px" y="0px"
	 width="300px" height="300px" viewBox="0 0 300 300" enable-background="new 0 0 300 300" xml:space="preserve">
<path fill="#FFFFFF" d="M297.115,99.662c-1.271-13.844-7.933-26.791-18.759-36.455c-10.773-9.616-24.454-14.912-38.522-14.912
	c-7.883,0-15.602,1.648-22.989,4.905c-15.714-27.221-38.343-41.062-67.31-41.155l-0.285,0c-36.191,0-56.052,21.686-66.58,41.127
	c-7.571-3.301-15.415-4.972-23.363-4.972c-14.153,0-27.885,5.368-38.667,15.115C9.942,72.988,3.299,85.887,1.936,99.637
	c-0.011,0.115-0.017,0.23-0.017,0.345v11.258c0,0.212,0.02,0.425,0.058,0.633c5.576,30.291,23.732,47.594,53.982,51.472v32.332
	c0,1.933,1.567,3.5,3.5,3.5h180.133c1.933,0,3.5-1.567,3.5-3.5v-32.79c29.705-2.877,47.854-20.01,53.973-50.969
	c0.044-0.224,0.066-0.451,0.066-0.679V99.982C297.13,99.875,297.125,99.769,297.115,99.662z"/>
<path fill="#FFFFFF" d="M243.165,230.599c-0.155-5.222-0.302-10.154-0.078-14.737c0.047-0.957-0.301-1.892-0.962-2.585
	c-0.66-0.693-1.576-1.086-2.534-1.086H60.021c-0.167,0-0.334,0.012-0.5,0.036c-1.157,0.167-3.819,1.023-3.559,5.319
	c0.206,4.295,0.068,8.944-0.078,13.867c-0.481,16.279-1.027,34.73,12.947,40.432c3.529,1.44,8.707,2.11,16.295,2.11
	c4.218,0,8.661-0.196,12.958-0.387c3.946-0.174,7.673-0.339,10.911-0.339h80.498c3.34,0,7.158,0.159,11.2,0.328
	c4.348,0.182,8.843,0.369,13.084,0.369c7.842,0,12.912-0.642,16.441-2.082C244.223,266.131,243.686,248.067,243.165,230.599z"/>
</svg>
