<?xml version="1.0" encoding="utf-8"?>
<!-- Generator: Adobe Illustrator 16.0.0, SVG Export Plug-In . SVG Version: 6.00 Build 0)  -->
<!DOCTYPE svg PUBLIC "-//W3C//DTD SVG 1.1//EN" "http://www.w3.org/Graphics/SVG/1.1/DTD/svg11.dtd">
<svg version="1.1" id="Ebene_1" xmlns="http://www.w3.org/2000/svg" xmlns:xlink="http://www.w3.org/1999/xlink" x="0px" y="0px"
	 width="300px" height="300px" viewBox="0 0 300 300" enable-background="new 0 0 300 300" xml:space="preserve">
<path fill="#FFFFFF" d="M240.213,263.771c-0.162-2.677-0.313-5.203-0.081-7.553c0.047-0.489-0.31-0.97-0.993-1.325
	c-0.682-0.354-1.624-0.556-2.613-0.556H51.331c-0.172,0-0.345,0.006-0.515,0.02c-1.193,0.084-3.938,0.523-3.67,2.727
	c0.211,2.199,0.07,4.582-0.08,7.104c-0.497,8.342-1.06,17.796,13.352,20.719c3.64,0.738,8.979,1.081,16.806,1.081
	c4.35,0,8.932-0.102,13.363-0.197c4.07-0.091,7.913-0.174,11.253-0.174h83.018c3.444,0,7.384,0.081,11.551,0.168
	c4.484,0.093,9.121,0.188,13.495,0.188c8.089,0,13.315-0.328,16.957-1.066C241.304,281.979,240.749,272.723,240.213,263.771z"/>
<path fill="#FFFFFF" d="M222.769,156.914c-7.348-12.516-15.928-25.741-14.655-41.14c1.816-21.874,22.098-28.877,40.58-36.63
	c0.662,1.409,1.562,2.755,2.615,4.025c4.031,6.308,11.078,10.502,19.118,10.502c12.532,0,22.691-10.159,22.691-22.691
	c0-12.531-10.159-22.69-22.691-22.69c-5.012,0-9.627,1.645-13.382,4.396c-4.908,3.163-8.482,8.143-9.482,14.06
	C190.527,67.381,161.99,96.507,145,137.187c-10.896-54.657-39.46-91.646-98.052-98.614C47.951,13.53,12.553,7.544,4.685,28.991
	c-4.261,11.607,1.957,25.015,12.96,28.741c11.655,3.947,21.142-3.075,26.485-9.014c14.878,9.962,24.136,23.255,25.361,41.695
	c1.992,30.122-19.286,59.174-21.981,86.783l-0.393,35.401l0,0v28.691c0,1.714,1.611,3.105,3.602,3.105h185.36
	c1.986,0,3.602-1.392,3.602-3.105v-29.099C237.588,172.857,222.769,156.914,222.769,156.914z M81.323,142.259
	c5.972-16.938,12.568-41.865,8.452-64.24c32.289,23.614,38.369,74.1,34.942,131.865c-17.552-1.18-36.026-3.122-47.336-10.707
	C60.14,187.617,75.445,158.932,81.323,142.259z"/>
</svg>
