<?xml version="1.0" encoding="utf-8"?>
<!-- Generator: Adobe Illustrator 16.0.0, SVG Export Plug-In . SVG Version: 6.00 Build 0)  -->
<!DOCTYPE svg PUBLIC "-//W3C//DTD SVG 1.1//EN" "http://www.w3.org/Graphics/SVG/1.1/DTD/svg11.dtd">
<svg version="1.1" id="Ebene_1" xmlns="http://www.w3.org/2000/svg" xmlns:xlink="http://www.w3.org/1999/xlink" x="0px" y="0px"
	 width="300px" height="300px" viewBox="0 0 300 300" enable-background="new 0 0 300 300" xml:space="preserve">
<path fill-rule="evenodd" clip-rule="evenodd" fill="#FFFFFF" d="M269.284,54.542c-12.124,0-22.166,8.602-23.938,19.829
	c-56.086,0.866-84.229,29.668-101.009,69.841c-10.806-54.205-39.134-90.887-97.241-97.798C48.09,21.578,12.985,15.641,5.182,36.91
	c-4.225,11.511,1.94,24.809,12.854,28.503c11.558,3.916,20.967-3.049,26.266-8.939c14.755,9.879,23.936,23.062,25.151,41.35
	c1.975,29.873-19.127,58.686-21.8,86.066c-1.236,12.706,1.055,19.65,5.03,27.388c-14.318,2.021-20.894,21.773-11.732,34.09
	c7.293,9.806,29.261,17.005,43.029,21.236c18.026,5.541,37.253,8.2,54.211,9.503c5.4,0,10.806,0,16.206,0
	c18.65-1.33,37.825-4.332,56.448-10.061c13.6-4.184,37.024-12.317,43.029-23.473c7.199-13.372-1.934-30.618-16.205-32.418
	c4.579-17.852-7.985-32.384-16.205-46.381c-7.287-12.411-15.797-25.527-14.534-40.8c1.789-21.573,21.692-28.56,39.938-36.2
	c3.614,8.523,12.286,14.529,22.415,14.529c13.373,0,24.216-10.468,24.216-23.381C293.5,65.01,282.657,54.542,269.284,54.542z
	 M124.223,216.309c-17.408-1.169-35.729-3.097-46.945-10.619c-17.099-11.463-1.921-39.912,3.909-56.447
	c5.924-16.797,12.465-41.519,8.382-63.708C121.59,108.953,127.621,159.021,124.223,216.309z"/>
</svg>
