<?xml version="1.0" encoding="utf-8"?>
<!-- Generator: Adobe Illustrator 16.0.0, SVG Export Plug-In . SVG Version: 6.00 Build 0)  -->
<!DOCTYPE svg PUBLIC "-//W3C//DTD SVG 1.1//EN" "http://www.w3.org/Graphics/SVG/1.1/DTD/svg11.dtd">
<svg version="1.1" id="Ebene_1" xmlns="http://www.w3.org/2000/svg" xmlns:xlink="http://www.w3.org/1999/xlink" x="0px" y="0px"
	 width="300px" height="300px" viewBox="0 0 300 300" enable-background="new 0 0 300 300" xml:space="preserve">
<path fill="#FFFFFF" d="M290.32,76.259c-1.721-5.683-8.385-8.662-14.266-11.29c-1.418-0.634-2.761-1.233-3.957-1.836
	c-37.433-18.82-81.035-40.768-120.648-60.86c-0.422-0.213-0.885-0.325-1.357-0.325h-1.075c-0.475,0-0.944,0.113-1.367,0.33
	c-16.753,8.575-41.79,21.365-65.694,33.384c-7.824,3.934-15.942,7.735-23.793,11.41c-13.991,6.55-28.459,13.323-41.555,21.003
	c-2.993,1.758-6.054,3.817-7.725,7.922c-0.146,0.359-0.222,0.744-0.222,1.131v14.544c0,0.149,0.011,0.297,0.033,0.444
	c1.745,11.648,15.583,11.648,21.493,11.648c2.812,0,5.808-0.121,8.705-0.237c2.936-0.118,5.972-0.24,8.855-0.24h203.071
	c2.685,0,5.598,0.101,8.414,0.199c2.916,0.102,5.931,0.206,8.808,0.206c6.489,0,21.687,0,22.403-11.839
	c0.004-0.061,0.006-0.121,0.006-0.182V77.129C290.45,76.834,290.407,76.542,290.32,76.259z"/>
<path fill="#FFFFFF" d="M95.256,114.751c-0.14-1.546-1.436-2.729-2.988-2.729h-63.02c-1.418,0-2.643,0.993-2.936,2.38
	c-1.579,7.48-0.713,14.212,2.439,18.956c1.899,2.858,4.541,4.915,7.729,6.04v91.975c0,1.656,1.343,3,3,3h42.553c1.657,0,3-1.344,3-3
	v-92.285c4.236-1.112,7.304-3.897,8.955-8.17C95.498,127.011,95.901,121.874,95.256,114.751z"/>
<path fill="#FFFFFF" d="M184.326,114.733c-0.148-1.538-1.441-2.711-2.986-2.711h-63.03c-1.399,0-2.612,0.967-2.924,2.331
	c-1.73,7.559-1.044,14.033,1.986,18.723c1.924,2.978,4.722,5.133,8.178,6.323v91.975c0,1.657,1.343,3,3,3h42.013
	c1.658,0,3-1.343,3-3v-92.267c2.922-0.727,5.305-2.185,7.103-4.354C184.083,130.628,185.247,124.267,184.326,114.733z"/>
<path fill="#FFFFFF" d="M273.395,114.81c-0.109-1.571-1.418-2.788-2.992-2.788h-63.021c-1.403,0-2.618,0.973-2.927,2.342
	c-1.734,7.719-1.055,14.276,1.965,18.963c1.82,2.826,4.439,4.885,7.658,6.045v92c0,1.657,1.343,3,3,3h42.554c1.657,0,3-1.343,3-3
	v-92.307C274.881,135.8,273.773,120.174,273.395,114.81z"/>
<path fill="#FFFFFF" d="M290.395,254.145c-2.265-11.502-16.672-11.502-23.597-11.502c-3.046,0-6.264,0.118-9.376,0.233
	c-3.093,0.113-6.291,0.231-9.294,0.231H50.984c-3.03,0-6.272-0.145-9.408-0.28c-3.174-0.14-6.456-0.283-9.566-0.283
	c-6.009,0-20.08,0-23.239,11.376c-0.073,0.262-0.109,0.531-0.109,0.803v25.315c0,0.319,0.051,0.636,0.151,0.938
	c1.732,5.256,5.273,8.801,10.525,10.531c0.303,0.102,0.621,0.151,0.94,0.151h258.551c0.319,0,0.636-0.052,0.938-0.15
	c5.258-1.731,8.801-5.276,10.531-10.532c0.102-0.305,0.15-0.621,0.15-0.938v-25.315C290.45,254.527,290.432,254.334,290.395,254.145
	z"/>
</svg>
