<?xml version="1.0" encoding="utf-8"?>
<!-- Generator: Adobe Illustrator 16.0.0, SVG Export Plug-In . SVG Version: 6.00 Build 0)  -->
<!DOCTYPE svg PUBLIC "-//W3C//DTD SVG 1.1//EN" "http://www.w3.org/Graphics/SVG/1.1/DTD/svg11.dtd">
<svg version="1.1" id="Ebene_1" xmlns="http://www.w3.org/2000/svg" xmlns:xlink="http://www.w3.org/1999/xlink" x="0px" y="0px"
	 width="300px" height="300px" viewBox="0 0 300 300" enable-background="new 0 0 300 300" xml:space="preserve">
<path fill="#FFFFFF" d="M196.417,124.451c-8.577-5.987-15.323-9.708-21.23-11.709c-0.506-0.17-1.057-0.133-1.532,0.104
	c-0.477,0.237-0.84,0.655-1.008,1.16l-0.808,2.432c-3.625,10.918-7.354,22.15-11.477,32.853c-1.434-5.821-3.272-11.644-5.56-17.62
	c2.744-1.246,4.397-3.431,4.628-6.214c0.376-4.553-3.337-10.102-8.107-12.117c-0.616-0.26-1.322-0.195-1.88,0.173
	c-4.649,3.068-7.216,6.882-7.229,10.739c-0.007,2.127,0.763,5.141,4.246,7.972c-2.414,5.971-4.248,12.545-6.005,18.965
	c-0.993-2.763-1.966-5.54-2.92-8.262c-3.439-9.815-6.996-19.965-11.366-29.15c-0.234-0.492-0.659-0.868-1.177-1.039
	c-0.518-0.171-1.082-0.124-1.564,0.13c-1.326,0.702-2.663,1.392-4,2.083c-17.344,8.961-35.277,18.228-30.314,50.174
	c0.151,0.975,0.99,1.693,1.976,1.693h120.545c1.002,0,1.85-0.741,1.982-1.735C216.861,140.83,208.146,132.639,196.417,124.451z"/>
<path fill="#FFFFFF" d="M249.033,175.842c-3.402-3.321-8.99-4.002-16.334-4.002c-1.763,0-3.594,0.039-5.458,0.078
	c-1.905,0.041-3.847,0.082-5.787,0.082h-114c-3.703,0-7.984-0.179-12.516-0.368c-5.11-0.213-10.395-0.434-15.555-0.434
	c-12.099,0-26.381,1.11-29.451,9.771c-1.888,5.325-2.216,20.72,0,26.972c2.993,8.443,11.138,8.447,19.761,8.452
	c3.024,0.001,6.138,0.003,9.289,0.324c1.257,7.966,2.865,15.676,4.422,23.146c1.645,7.888,3.346,16.044,4.617,24.438
	c0.148,0.978,0.989,1.7,1.978,1.7h32.182c0.588,0,1.147-0.259,1.527-0.708s0.543-1.043,0.445-1.624
	c-1.691-10.062,0.109-18.567,5.208-24.596c4.784-5.654,12.314-8.897,20.66-8.897c8.859,0,17.105,3.679,22.056,9.841
	c4.89,6.086,6.388,14.23,4.332,23.554c-0.131,0.592,0.015,1.211,0.395,1.684c0.379,0.473,0.952,0.747,1.559,0.747h29.454
	c0.952,0,1.773-0.672,1.961-1.605c0.978-4.862,1.905-9.861,2.804-14.695c2.09-11.254,4.248-22.875,7.163-33.495
	c1.289-0.12,2.581-0.179,3.917-0.179c2.675,0,5.068,0.235,7.384,0.463c2.094,0.206,4.072,0.4,6.067,0.4
	c2.739,0,5.081-0.376,7.37-1.185c4.358-1.54,7.44-5.882,8.911-12.558C255.621,193.042,253.583,180.283,249.033,175.842z"/>
<path fill-rule="evenodd" clip-rule="evenodd" fill="#FFFFFF" d="M144.166,44.125c48.129-7.665,48.6,68.8,0,61.452
	c-13-1.965-25.337-15.494-25.56-30.454C118.35,57.954,130.203,46.349,144.166,44.125z"/>
</svg>
