<?xml version="1.0" encoding="utf-8"?>
<!-- Generator: Adobe Illustrator 16.0.0, SVG Export Plug-In . SVG Version: 6.00 Build 0)  -->
<!DOCTYPE svg PUBLIC "-//W3C//DTD SVG 1.1//EN" "http://www.w3.org/Graphics/SVG/1.1/DTD/svg11.dtd">
<svg version="1.1" id="Ebene_1" xmlns="http://www.w3.org/2000/svg" xmlns:xlink="http://www.w3.org/1999/xlink" x="0px" y="0px"
	 width="300px" height="300px" viewBox="0 0 300 300" enable-background="new 0 0 300 300" xml:space="preserve">
<path fill="#FFFFFF" d="M269.795,57.148c-0.336-1.148-1.454-1.897-2.629-1.786c-2.332,0.215-4.663,0.324-6.927,0.324
	c-25.056,0-41.829-13.047-58.051-25.665c-14.617-11.37-28.423-22.109-46.88-22.109c-1.951,0-3.948,0.124-5.937,0.369
	c-13.631,1.681-26.767,11.635-40.674,22.175C90.675,44.113,72.041,58.236,49.152,58.236c-0.001,0-0.004,0-0.005,0
	c-2.464,0-4.963-0.17-7.429-0.504c-1.271-0.165-2.452,0.635-2.761,1.871c-8.453,33.782-4.907,78.16,2.358,107.153
	c7.177,28.686,22.984,59.942,42.285,83.612c16.065,19.702,41.782,43.188,73.064,43.186c15.293-0.001,30.111-5.778,44.046-17.171
	c25.057-20.493,48.197-55.752,61.899-94.318C278.086,138.504,280.638,94.141,269.795,57.148z M147.821,39.324v105.5L64.4,144.813
	c-6.041-19.544-5.172-39.616-4.17-62.753l0.036-0.834C96.493,76,123.273,57.954,146.283,40.491
	C146.796,40.102,147.309,39.713,147.821,39.324z M242.722,154.53c-15.688,45.732-38.13,74.445-54.373,90.586
	c-12.754,12.674-25.741,19.747-31.12,22.821l-0.26-113.195C168.061,154.702,215.47,154.543,242.722,154.53z"/>
</svg>
