<?xml version="1.0" encoding="utf-8"?>
<!-- Generator: Adobe Illustrator 16.0.0, SVG Export Plug-In . SVG Version: 6.00 Build 0)  -->
<!DOCTYPE svg PUBLIC "-//W3C//DTD SVG 1.1//EN" "http://www.w3.org/Graphics/SVG/1.1/DTD/svg11.dtd">
<svg version="1.1" id="Ebene_1" xmlns="http://www.w3.org/2000/svg" xmlns:xlink="http://www.w3.org/1999/xlink" x="0px" y="0px"
	 width="300px" height="300px" viewBox="0 0 300 300" enable-background="new 0 0 300 300" xml:space="preserve">
<path fill="#FFFFFF" d="M179.396,31.847c2.396,0,4.337-1.941,4.337-4.337V13.371c0-2.396-1.941-4.337-4.337-4.337H13.53
	c-0.207,0-0.414,0.015-0.618,0.044c-1.066,0.154-4.497,1.042-4.262,6.039V222.2c0,2.396,1.942,4.337,4.337,4.337h166.41
	c2.396,0,4.337-1.941,4.337-4.337v-13.596c0-2.396-1.941-4.337-4.337-4.337H30.919V31.847H179.396z"/>
<path fill-rule="evenodd" clip-rule="evenodd" fill="#FFFFFF" d="M226.166,14.458c48.129-7.665,48.6,68.8,0,61.452
	c-13-1.966-25.337-15.495-25.56-30.455C200.35,28.287,212.203,16.682,226.166,14.458z"/>
<path fill="#FFFFFF" d="M288.435,160.287c-0.146-2.184-0.286-4.247-0.286-6.066V97.12c0-2.094-1.496-3.889-3.557-4.266
	c-4.654-0.852-9.305-1.833-13.801-2.783c-6.271-1.324-12.756-2.693-19.473-3.761c-1.499-0.242-3.015,0.325-3.995,1.486
	c-3.882,4.6-7.104,9.773-10.219,14.775c-1.722,2.766-3.387,5.44-5.128,7.982c-0.819-1.224-1.665-2.432-2.53-3.667
	c-1.131-1.615-2.301-3.286-3.446-5.054c-0.413-0.638-1.062-1.853-1.751-3.139c-3.408-6.373-6.327-11.357-10.238-12.734
	c-1.996-0.703-4.598-1.03-8.189-1.03c-2.999,0-6.205,0.223-9.306,0.438c-2.555,0.178-4.968,0.346-6.786,0.346h-68.522
	c-1.618,0-3.102,0.901-3.848,2.337c-3.012,5.796-5.297,12.248-7.507,18.487c-1.136,3.208-2.311,6.524-3.551,9.646
	c-0.527,1.326-0.368,2.827,0.426,4.013c0.793,1.187,2.12,1.906,3.547,1.925c3.99,0.053,8.269,0.078,13.078,0.078
	c6.201,0,12.445-0.042,18.69-0.084c6.225-0.042,12.449-0.085,18.631-0.085c11.341,0,20.283,0.146,28.381,0.467
	c2.784,27.534,5.864,55.181,8.848,81.956c2.939,26.381,5.979,53.66,8.723,80.724c0.225,2.215,2.089,3.899,4.314,3.899h41.875
	c2.218,0,4.077-1.673,4.312-3.877c3.226-30.234,6.607-60.877,9.878-90.511l0.252-2.282c1.439-1.163,2.827-2.388,4.181-3.581
	c1.532-1.352,3.116-2.749,4.71-3.995c0.691-0.538,1.728-1.176,2.824-1.851c3.441-2.119,7.727-4.755,8.998-9.033
	C289.099,170.147,288.762,165.135,288.435,160.287z"/>
</svg>
