<?xml version="1.0" encoding="utf-8"?>
<!-- Generator: Adobe Illustrator 16.0.0, SVG Export Plug-In . SVG Version: 6.00 Build 0)  -->
<!DOCTYPE svg PUBLIC "-//W3C//DTD SVG 1.1//EN" "http://www.w3.org/Graphics/SVG/1.1/DTD/svg11.dtd">
<svg version="1.1" id="Layer_1" xmlns="http://www.w3.org/2000/svg" xmlns:xlink="http://www.w3.org/1999/xlink" x="0px" y="0px"
	 width="306px" height="70px" viewBox="0 0 306 70" enable-background="new 0 0 306 70" xml:space="preserve">
<rect x="2" y="2.905" fill="#FFFFFF" width="63.59" height="63.604"/>
<g>
	<polygon fill="#FFFFFF" points="74.443,33.906 78.104,33.906 78.104,46.186 79.676,46.186 79.676,33.906 83.378,33.906 
		83.478,32.533 74.443,32.533 	"/>
	<path fill="#FFFFFF" d="M84.414,38.543v7.641h1.553v-6.207c0-0.816,0.119-1.117,0.577-1.569c0.457-0.462,1.056-0.722,1.651-0.722
		c0.16,0,0.339,0.039,0.438,0.084l0.637-1.691c0,0-0.279-0.102-0.538-0.102c-1.013,0-2.069,0.635-2.785,1.651
		c0.06-0.836-0.318-1.614-0.318-1.614l-1.553,0.418C84.074,36.434,84.414,37.089,84.414,38.543L84.414,38.543z"/>
	<path fill="#FFFFFF" d="M91.281,38.465c0.638-0.579,2.05-1.177,3.164-1.177c0.619,0,1.016,0.18,1.333,0.541
		c0.28,0.315,0.319,0.675,0.319,1.55v0.695c0,0-0.279-0.02-0.697-0.02c-3.324,0-5.253,1.312-5.253,3.562
		c0,1.332,0.736,2.822,3.184,2.822c1.134,0,1.912-0.379,2.866-1.332c0.18,0.695,0.678,1.234,1.354,1.453l0.795-1.111
		c-0.735-0.397-0.835-0.816-0.795-2.432l0.081-3.263c0.018-0.897,0-1.651-0.22-2.188c-0.417-1.014-1.374-1.555-2.747-1.555
		c-1.432,0-2.845,0.457-4.159,1.336L91.281,38.465L91.281,38.465z M95.999,43.739c-0.458,0.933-1.394,1.551-2.409,1.551
		c-1.135,0-1.711-0.636-1.711-1.812c0-1.514,0.895-2.369,3.403-2.369c0.28,0,0.518,0.02,0.777,0.039L95.999,43.739L95.999,43.739z"
		/>
	<path fill="#FFFFFF" d="M100.935,46.186h1.612V36.055l-1.612,0.262V46.186L100.935,46.186z M100.556,33.229
		c0,0.656,0.537,1.195,1.214,1.195c0.678,0,1.214-0.539,1.214-1.215c0-0.677-0.536-1.214-1.214-1.214
		C101.093,31.996,100.556,32.553,100.556,33.229L100.556,33.229z"/>
	<path fill="#FFFFFF" d="M105.906,38.543v7.641h1.512V38.8c0.718-0.754,1.95-1.39,2.746-1.39c0.458,0,0.876,0.16,1.095,0.418
		c0.278,0.334,0.358,0.593,0.358,1.652v6.703h1.572v-7.521c0-0.398-0.079-0.797-0.238-1.157c-0.399-0.875-1.354-1.454-2.427-1.454
		c-1.056,0-2.09,0.501-3.125,1.536c0-0.815-0.358-1.556-0.358-1.556l-1.512,0.418C105.528,36.453,105.906,37.133,105.906,38.543
		L105.906,38.543z"/>
	<path fill="#FFFFFF" d="M116.431,46.186h1.612V36.055l-1.612,0.262V46.186L116.431,46.186z M116.053,33.229
		c0,0.656,0.539,1.195,1.214,1.195c0.677,0,1.214-0.539,1.214-1.215c0-0.677-0.537-1.214-1.214-1.214
		C116.592,31.996,116.053,32.553,116.053,33.229L116.053,33.229z"/>
	<path fill="#FFFFFF" d="M121.403,38.543v7.641h1.511V38.8c0.717-0.754,1.95-1.39,2.748-1.39c0.457,0,0.876,0.16,1.094,0.418
		c0.279,0.334,0.358,0.593,0.358,1.652v6.703h1.571v-7.521c0-0.398-0.078-0.797-0.237-1.157c-0.399-0.875-1.354-1.454-2.429-1.454
		c-1.054,0-2.09,0.501-3.123,1.536c0-0.815-0.359-1.556-0.359-1.556l-1.512,0.418C121.025,36.453,121.403,37.133,121.403,38.543
		L121.403,38.543z"/>
	<path fill="#FFFFFF" d="M138.217,36.632c-1.215,0-1.514-0.555-3.025-0.555c-2.17,0-3.662,1.353-3.662,3.34
		c0,1.317,0.896,2.45,2.229,2.867c-1.354,0.418-1.792,0.896-1.792,1.692c0,0.894,0.697,1.435,1.871,1.435
		c0.318,0,1.135-0.025,1.532-0.025c0.976,0,1.572,0.104,1.95,0.361c0.359,0.237,0.539,0.655,0.539,1.19
		c0,1.237-0.875,1.733-2.409,1.733c-0.796,0-1.531-0.18-2.01-0.458c-0.358-0.218-0.578-0.636-0.578-1.154
		c0-0.316,0.14-0.678,0.279-0.896l-1.633,0.143c-0.138,0.395-0.198,0.694-0.198,1.055c0,1.41,1.194,2.522,4.3,2.522
		c2.406,0,3.94-0.974,3.94-3.122c0-0.854-0.32-1.55-1.097-2.091c-0.595-0.417-1.233-0.56-2.388-0.56h-1.591
		c-0.497,0-0.797-0.18-0.797-0.477c0-0.336,0.457-0.676,1.791-1.152c0.717,0,1.354-0.121,1.851-0.438
		c0.916-0.579,1.473-1.615,1.473-2.727c0-0.64-0.199-1.196-0.597-1.692c0.179,0.078,0.419,0.117,0.677,0.117
		c0.598,0,1.056-0.156,1.671-0.595l-0.954-0.957C139.113,36.516,138.733,36.632,138.217,36.632L138.217,36.632z M136.984,39.339
		c0,1.333-0.6,1.988-1.793,1.988c-1.254,0-1.91-0.656-1.91-1.929c0-1.371,0.638-2.008,1.87-2.008
		C136.465,37.391,136.984,37.982,136.984,39.339L136.984,39.339z"/>
	<path fill="#FFFFFF" d="M141.894,45.07c0,0.755,0.598,1.371,1.355,1.371c0.715,0,1.313-0.616,1.313-1.371
		c0-0.738-0.599-1.316-1.355-1.316C142.471,43.754,141.894,44.332,141.894,45.07L141.894,45.07z"/>
	<path fill="#FFFFFF" d="M154.387,32.354c-3.303,0-5.729,2.985-5.729,7.044c0,2.031,0.477,3.879,1.632,5.194
		c1.056,1.191,2.506,1.81,3.979,1.81c1.354,0,2.709-0.397,3.803-1.112l-0.875-1.095c-0.875,0.613-1.652,0.875-2.666,0.875
		c-1.553,0-2.966-0.836-3.663-2.547c-0.318-0.797-0.438-1.569-0.438-2.89c0-1.606,0.18-2.707,0.576-3.62
		c0.658-1.532,1.79-2.349,3.363-2.349c0.996,0,1.771,0.257,2.586,0.855l0.875-1.054C156.896,32.753,155.699,32.354,154.387,32.354
		L154.387,32.354z"/>
	<path fill="#FFFFFF" d="M159.604,41.173c0,3.263,1.551,5.271,4.277,5.271c2.489,0,4.26-1.752,4.26-5.053
		c0-1.613-0.297-2.789-0.914-3.684c-0.679-0.977-1.752-1.73-3.402-1.73C161.215,35.977,159.604,37.945,159.604,41.173
		L159.604,41.173z M165.91,38.523c0.318,0.656,0.46,1.59,0.46,2.983c0,0.978-0.081,1.53-0.3,2.148
		c-0.34,0.956-1.115,1.491-2.15,1.491c-0.854,0-1.65-0.397-2.01-0.99c-0.377-0.618-0.615-1.854-0.615-3.248
		c0-1.174,0.158-1.971,0.477-2.586c0.34-0.657,1.154-1.074,2.033-1.074C164.617,37.25,165.493,37.648,165.91,38.523L165.91,38.523z"
		/>
	<path fill="#FFFFFF" d="M170.309,41.173c0,3.263,1.555,5.271,4.278,5.271c2.487,0,4.259-1.752,4.259-5.053
		c0-1.613-0.296-2.789-0.914-3.684c-0.678-0.977-1.752-1.73-3.402-1.73C171.921,35.977,170.309,37.945,170.309,41.173
		L170.309,41.173z M176.617,38.523c0.318,0.656,0.457,1.59,0.457,2.983c0,0.978-0.077,1.53-0.297,2.148
		c-0.34,0.956-1.116,1.491-2.15,1.491c-0.854,0-1.65-0.397-2.011-0.99C172.238,43.54,172,42.305,172,40.911
		c0-1.172,0.159-1.97,0.479-2.586c0.338-0.657,1.154-1.074,2.029-1.074C175.324,37.25,176.199,37.648,176.617,38.523L176.617,38.523
		z"/>
	<path fill="#FFFFFF" d="M181.673,33.969v12.217h1.554V33.985c0-1.512-0.261-2.348-0.261-2.348l-1.551,0.299
		C181.415,31.937,181.673,32.673,181.673,33.969L181.673,33.969z M183.284,40.575l4.558,5.61h2.068l-4.792-5.61l3.897-4.298h-1.949
		L183.284,40.575L183.284,40.575z"/>
	<path fill="#FFFFFF" d="M191.523,46.186h1.61V36.055l-1.61,0.262V46.186L191.523,46.186z M191.146,33.229
		c0,0.656,0.537,1.195,1.213,1.195c0.677,0,1.217-0.539,1.217-1.215c0-0.677-0.54-1.214-1.217-1.214
		C191.684,31.995,191.146,32.553,191.146,33.229L191.146,33.229z"/>
	<path fill="#FFFFFF" d="M196.497,38.543v7.641h1.512V38.8c0.716-0.754,1.949-1.39,2.747-1.39c0.456,0,0.875,0.16,1.094,0.418
		c0.279,0.334,0.356,0.593,0.356,1.652v6.703h1.573v-7.521c0-0.398-0.08-0.797-0.238-1.157c-0.398-0.875-1.354-1.454-2.43-1.454
		c-1.055,0-2.088,0.501-3.125,1.536c0-0.815-0.356-1.556-0.356-1.556l-1.512,0.418C196.118,36.453,196.497,37.133,196.497,38.543
		L196.497,38.543z"/>
	<path fill="#FFFFFF" d="M213.311,36.632c-1.213,0-1.513-0.555-3.024-0.555c-2.168,0-3.663,1.353-3.663,3.34
		c0,1.317,0.896,2.45,2.229,2.867c-1.354,0.418-1.791,0.896-1.791,1.692c0,0.894,0.697,1.435,1.869,1.435
		c0.318,0,1.137-0.025,1.534-0.025c0.976,0,1.572,0.104,1.949,0.361c0.358,0.237,0.537,0.655,0.537,1.19
		c0,1.237-0.876,1.733-2.406,1.733c-0.798,0-1.532-0.18-2.011-0.458c-0.355-0.218-0.576-0.636-0.576-1.154
		c0-0.316,0.141-0.678,0.277-0.896l-1.631,0.143c-0.144,0.395-0.199,0.694-0.199,1.055c0,1.41,1.193,2.522,4.297,2.522
		c2.408,0,3.939-0.974,3.939-3.122c0-0.854-0.316-1.55-1.094-2.091c-0.599-0.417-1.234-0.56-2.388-0.56h-1.597
		c-0.494,0-0.795-0.18-0.795-0.477c0-0.336,0.457-0.676,1.793-1.152c0.715,0,1.354-0.121,1.851-0.438
		c0.917-0.579,1.473-1.615,1.473-2.727c0-0.64-0.198-1.196-0.596-1.692c0.178,0.078,0.419,0.117,0.676,0.117
		c0.599,0,1.058-0.156,1.67-0.595l-0.95-0.957C214.204,36.516,213.825,36.632,213.311,36.632L213.311,36.632z M212.074,39.339
		c0,1.333-0.596,1.988-1.79,1.988c-1.253,0-1.911-0.656-1.911-1.929c0-1.371,0.639-2.008,1.872-2.008
		C211.559,37.391,212.074,37.982,212.074,39.339L212.074,39.339z"/>
	<path fill="#FFFFFF" d="M216.986,45.07c0,0.755,0.6,1.371,1.354,1.371c0.719,0,1.312-0.616,1.312-1.371
		c0-0.738-0.596-1.316-1.354-1.316C217.562,43.754,216.986,44.332,216.986,45.07L216.986,45.07z"/>
	<path fill="#FFFFFF" d="M229.281,32.354c-3.303,0-5.73,2.985-5.73,7.044c0,2.031,0.479,3.879,1.633,5.194
		c1.053,1.191,2.506,1.81,3.979,1.81c1.351,0,2.704-0.397,3.798-1.112l-0.875-1.095c-0.874,0.613-1.648,0.875-2.666,0.875
		c-1.551,0-2.966-0.836-3.663-2.547c-0.319-0.797-0.437-1.569-0.437-2.89c0-1.606,0.18-2.707,0.578-3.62
		c0.654-1.532,1.791-2.349,3.359-2.349c0.997,0,1.774,0.257,2.59,0.855l0.877-1.054C231.79,32.753,230.598,32.354,229.281,32.354
		L229.281,32.354z"/>
	<path fill="#FFFFFF" d="M234.497,41.173c0,3.263,1.552,5.271,4.278,5.271c2.484,0,4.259-1.752,4.259-5.053
		c0-1.613-0.3-2.789-0.917-3.684c-0.676-0.977-1.75-1.73-3.399-1.73C236.107,35.977,234.497,37.945,234.497,41.173L234.497,41.173z
		 M240.805,38.523c0.318,0.656,0.457,1.59,0.457,2.983c0,0.978-0.076,1.53-0.296,2.148c-0.339,0.956-1.116,1.491-2.151,1.491
		c-0.854,0-1.65-0.397-2.01-0.99c-0.377-0.618-0.615-1.854-0.615-3.248c0-1.174,0.158-1.971,0.478-2.586
		c0.338-0.657,1.153-1.074,2.028-1.074C239.514,37.25,240.387,37.648,240.805,38.523L240.805,38.523z"/>
	<path fill="#FFFFFF" d="M246.299,38.465c0.637-0.579,2.049-1.177,3.164-1.177c0.617,0,1.014,0.18,1.332,0.541
		c0.279,0.315,0.318,0.675,0.318,1.55v0.695c0,0-0.277-0.02-0.695-0.02c-3.322,0-5.256,1.312-5.256,3.562
		c0,1.332,0.736,2.822,3.186,2.822c1.135,0,1.91-0.379,2.865-1.332c0.18,0.695,0.676,1.234,1.354,1.453l0.797-1.111
		c-0.733-0.397-0.834-0.816-0.797-2.432l0.08-3.263c0.021-0.897,0-1.651-0.217-2.188c-0.422-1.014-1.373-1.555-2.748-1.555
		c-1.435,0-2.847,0.457-4.158,1.336L246.299,38.465L246.299,38.465z M251.014,43.739c-0.457,0.933-1.394,1.551-2.406,1.551
		c-1.135,0-1.711-0.636-1.711-1.812c0-1.514,0.896-2.369,3.402-2.369c0.276,0,0.516,0.02,0.775,0.039L251.014,43.739L251.014,43.739
		z"/>
	<path fill="#FFFFFF" d="M259.494,36.016c-1.055,0-1.914,0.379-2.688,1.152c-0.854,0.859-1.492,2.051-1.492,4.223
		c0,1.477,0.297,2.568,0.953,3.521c0.697,0.997,1.754,1.492,3.166,1.492c1.232,0,2.107-0.379,3.023-1.312l-0.855-0.997
		c-0.578,0.7-1.332,1.074-2.132,1.074c-1.59,0-2.446-1.209-2.446-3.44c0-1.453,0.181-2.547,0.557-3.242
		c0.361-0.682,1.097-1.117,1.875-1.117c0.757,0,1.193,0.223,1.889,0.796l0.854-1.074C261.484,36.491,260.748,36.016,259.494,36.016
		L259.494,36.016z"/>
	<path fill="#FFFFFF" d="M264.729,33.969v12.217h1.554v-7.045c0.854-1.056,1.929-1.673,2.885-1.673c0.499,0,0.916,0.161,1.153,0.399
		c0.277,0.277,0.378,0.734,0.378,1.473v6.846h1.532v-7.103c0-0.72-0.041-1.036-0.16-1.435c-0.275-0.918-1.352-1.57-2.547-1.57
		c-1.272,0-2.407,0.734-3.303,1.57c0,0,0.062-0.719,0.062-1.356v-2.306c0-1.512-0.261-2.348-0.261-2.348l-1.553,0.299
		C264.469,31.937,264.729,32.673,264.729,33.969L264.729,33.969z"/>
	<path fill="#FFFFFF" d="M275.432,46.186h1.613V36.055l-1.613,0.262V46.186L275.432,46.186z M275.055,33.229
		c0,0.656,0.537,1.195,1.217,1.195c0.674,0,1.213-0.539,1.213-1.215c0-0.677-0.539-1.214-1.213-1.214
		C275.592,31.996,275.055,32.553,275.055,33.229L275.055,33.229z"/>
	<path fill="#FFFFFF" d="M280.404,38.543v7.641h1.512V38.8c0.717-0.754,1.952-1.39,2.747-1.39c0.459,0,0.877,0.16,1.094,0.418
		c0.279,0.334,0.359,0.593,0.359,1.652v6.703h1.571v-7.521c0-0.398-0.08-0.797-0.239-1.157c-0.396-0.875-1.353-1.454-2.427-1.454
		c-1.056,0-2.09,0.501-3.125,1.536c0-0.815-0.356-1.556-0.356-1.556l-1.513,0.418C280.027,36.453,280.404,37.133,280.404,38.543
		L280.404,38.543z"/>
	<path fill="#FFFFFF" d="M297.217,36.632c-1.213,0-1.512-0.555-3.023-0.555c-2.17,0-3.659,1.353-3.659,3.34
		c0,1.317,0.896,2.45,2.229,2.867c-1.354,0.418-1.791,0.896-1.791,1.692c0,0.894,0.693,1.435,1.867,1.435
		c0.319,0,1.137-0.025,1.533-0.025c0.979,0,1.574,0.104,1.95,0.361c0.358,0.237,0.536,0.655,0.536,1.19
		c0,1.237-0.875,1.733-2.404,1.733c-0.798,0-1.535-0.18-2.012-0.458c-0.358-0.218-0.578-0.636-0.578-1.154
		c0-0.316,0.141-0.678,0.275-0.896l-1.631,0.143c-0.139,0.395-0.195,0.694-0.195,1.055c0,1.41,1.192,2.522,4.297,2.522
		c2.408,0,3.938-0.974,3.938-3.122c0-0.854-0.317-1.55-1.094-2.091c-0.599-0.417-1.233-0.56-2.388-0.56h-1.594
		c-0.496,0-0.795-0.18-0.795-0.477c0-0.336,0.456-0.676,1.79-1.152c0.718,0,1.354-0.121,1.851-0.438
		c0.916-0.579,1.475-1.615,1.475-2.727c0-0.64-0.199-1.196-0.596-1.692c0.177,0.078,0.416,0.117,0.676,0.117
		c0.596,0,1.055-0.156,1.672-0.595l-0.957-0.957C298.114,36.516,297.736,36.632,297.217,36.632L297.217,36.632z M295.984,39.339
		c0,1.333-0.598,1.988-1.793,1.988c-1.254,0-1.908-0.656-1.908-1.929c0-1.371,0.636-2.008,1.869-2.008
		C295.466,37.391,295.984,37.982,295.984,39.339L295.984,39.339z"/>
	<path fill="#FFFFFF" d="M76.074,4.006v17.289h4.205c1.02,0,1.841-0.05,2.487-0.1c1.618-0.124,3.159-1.069,4.203-2.486
		c1.169-1.568,1.743-3.633,1.743-5.995c0-3.11-0.771-5.324-2.363-6.891c-1.046-1.045-2.315-1.592-3.782-1.718
		c-0.698-0.05-2.017-0.1-3.01-0.1L76.074,4.006L76.074,4.006z M79.608,6.743h1.591c1.369,0,2.165,0.497,2.736,1.443
		c0.697,1.144,0.872,2.836,0.872,4.851c0,3.657-1.045,5.423-3.333,5.423h-1.866V6.743L79.608,6.743z"/>
	<path fill="#FFFFFF" d="M91.05,9.058c0.273,0.719,0.473,2.014,0.473,3.73v8.507h3.334v-9.004c0.622-0.722,1.293-1.071,2.039-1.071
		c0.375,0,0.649,0.075,0.973,0.249l0.918-2.935c-0.522-0.224-0.745-0.273-1.242-0.273c-0.375,0-0.823,0.074-1.097,0.198
		c-0.621,0.274-1.418,0.97-1.891,1.617c-0.05-0.722-0.222-1.293-0.521-1.815L91.05,9.058L91.05,9.058z"/>
	<path fill="#FFFFFF" d="M100.199,17.315c-1.194,0-2.166,0.971-2.166,2.165c0,1.219,0.971,2.214,2.189,2.214
		c1.194,0,2.188-0.996,2.188-2.214C102.411,18.286,101.417,17.315,100.199,17.315L100.199,17.315z"/>
	<path fill="#FFFFFF" d="M122.198,5.001c-0.945-0.82-2.66-1.368-4.377-1.368c-2.787,0-5.275,1.493-6.618,4.005
		c-0.795,1.493-1.169,3.208-1.169,5.373c0,2.537,0.697,4.626,2.089,6.194c1.418,1.616,3.258,2.388,5.646,2.388
		c1.967,0,3.435-0.498,4.803-1.617l-1.593-2.189c-1.02,0.822-1.939,1.12-2.959,1.12c-1.494,0-2.639-0.671-3.335-1.94
		c-0.521-0.945-0.72-2.264-0.72-4.626c0-2.015,0.297-3.458,0.969-4.453c0.622-0.921,1.766-1.493,2.935-1.493
		c0.973,0,1.892,0.323,2.762,0.971L122.198,5.001L122.198,5.001z"/>
	<path fill="#FFFFFF" d="M124.216,3.658c0.149,0.523,0.25,1.716,0.25,2.911v14.726h3.384v-9.129
		c0.745-0.671,1.814-1.169,2.635-1.169c0.945,0,1.294,0.473,1.294,1.742v8.557h3.259v-8.904c0-1.22-0.074-1.644-0.323-2.364
		c-0.398-1.12-1.692-1.815-3.308-1.815c-1.295,0-2.736,0.546-3.607,1.368c0-0.15,0.051-0.672,0.051-1.07V5.973
		c0-1.221-0.076-2.414-0.227-3.11L124.216,3.658L124.216,3.658z"/>
	<path fill="#FFFFFF" d="M137.87,9.058c0.274,0.719,0.472,2.014,0.472,3.73v8.507h3.336v-9.004c0.619-0.722,1.292-1.071,2.039-1.071
		c0.371,0,0.646,0.075,0.968,0.249l0.922-2.935c-0.522-0.224-0.746-0.273-1.243-0.273c-0.375,0-0.82,0.074-1.095,0.198
		c-0.622,0.274-1.417,0.97-1.892,1.617c-0.048-0.722-0.222-1.293-0.522-1.815L137.87,9.058L137.87,9.058z"/>
	<path fill="#FFFFFF" d="M147.117,8.784v12.511h3.332V8.261L147.117,8.784L147.117,8.784z M148.833,2.987
		c-1.145,0-2.089,0.921-2.089,2.064c0,1.145,0.92,2.065,2.039,2.065c1.146,0,2.064-0.92,2.064-2.065
		C150.848,3.908,149.952,2.987,148.833,2.987L148.833,2.987z"/>
	<path fill="#FFFFFF" d="M162.609,9.404c-1.17-0.572-2.512-1.192-4.549-1.192c-2.963,0-4.93,1.665-4.93,4.153
		c0,0.822,0.274,1.741,0.725,2.288c0.446,0.547,1.49,1.145,2.336,1.294l1.496,0.271c1.342,0.248,1.963,0.696,1.963,1.566
		c0,0.822-0.746,1.443-1.689,1.443c-1.443,0-3.21-0.82-4.23-1.443l-1.191,2.438c1.865,0.969,3.583,1.468,5.148,1.468
		c3.258,0,5.444-1.792,5.444-4.429c0-0.846-0.22-1.567-0.694-2.164c-0.445-0.572-0.97-1.045-2.537-1.443l-1.541-0.397
		c-1.172-0.299-1.592-0.646-1.592-1.294c0-0.746,0.646-1.243,1.615-1.243c0.945,0,1.864,0.273,3.137,0.92L162.609,9.404
		L162.609,9.404z"/>
	<path fill="#FFFFFF" d="M171.764,8.559h-2.984c0-1.293,0.072-2.686,0.199-3.855l-3.385,0.846c-0.123,0.944-0.123,1.766-0.123,3.009
		h-1.269v2.288h1.269v6.917c0,1.169,0.023,1.418,0.223,1.965c0.4,1.119,1.744,1.865,3.435,1.865c0.872,0,1.74-0.174,2.712-0.572
		l-0.422-1.988c-0.6,0.172-0.896,0.247-1.195,0.247c-1.144,0-1.44-0.421-1.44-2.04v-6.394h2.14L171.764,8.559L171.764,8.559z"/>
	<path fill="#FFFFFF" d="M173.982,8.784v12.511h3.332V8.261L173.982,8.784L173.982,8.784z M175.698,2.987
		c-1.146,0-2.089,0.921-2.089,2.064c0,1.145,0.92,2.065,2.037,2.065c1.146,0,2.065-0.92,2.065-2.065
		C177.714,3.908,176.816,2.987,175.698,2.987L175.698,2.987z"/>
	<path fill="#FFFFFF" d="M180.249,10.077l1.417,2.388c1.368-0.921,2.609-1.443,3.684-1.443c1.217,0,1.49,0.473,1.49,1.89v0.522
		c-0.273-0.024-0.497-0.024-0.747-0.024c-4.056,0-6.118,1.394-6.118,4.377c0,2.538,1.543,3.98,4.377,3.98
		c1.047,0,1.94-0.249,2.562-0.696c0.251-0.174,0.521-0.423,0.771-0.672c0.323,0.648,1.021,1.219,1.789,1.542l1.77-2.04
		c-0.971-0.72-1.193-1.243-1.193-2.611c0-0.075,0-0.149,0-0.224l0.074-4.279c0.021-1.367-0.051-1.766-0.227-2.289
		c-0.496-1.418-1.965-2.214-4.104-2.214c-1.17,0-2.24,0.224-3.482,0.746C181.418,9.404,180.92,9.653,180.249,10.077L180.249,10.077z
		 M186.789,15.723l-0.049,2.737c-0.497,0.547-1.12,0.87-1.742,0.87c-0.846,0-1.469-0.671-1.469-1.666
		c0-1.519,0.798-1.941,3.111-1.941H186.789L186.789,15.723z"/>
	<path fill="#FFFFFF" d="M193.18,9.082c0.301,0.845,0.447,1.891,0.447,2.984v9.229h3.334v-9.004c0.77-0.698,1.643-1.145,2.312-1.145
		c0.871,0,1.119,0.423,1.119,1.866v8.283h3.28v-9.303c0-0.796-0.071-1.343-0.243-1.816c-0.398-1.095-1.646-1.841-3.062-1.841
		c-0.748,0-1.619,0.199-2.289,0.547c-0.547,0.298-0.973,0.597-1.471,0.944c0-0.522-0.172-1.069-0.471-1.591L193.18,9.082
		L193.18,9.082z"/>
	<path fill="#FFFFFF" d="M213.055,4.006v17.289h3.408v-7.214c0.223,0.025,0.371,0.075,0.547,0.15
		c0.622,0.272,1.145,1.119,2.86,4.229c0.671,1.219,0.946,1.691,1.616,2.835h4.104c0,0-3.158-5.473-4.152-6.716
		c-0.225-0.298-0.375-0.448-0.723-0.721c2.141-0.05,3.854-2.189,3.854-4.776c0-3.035-2.016-5.076-5.072-5.076H213.055L213.055,4.006
		z M216.463,6.793h1.242c0.845,0,1.57,0.1,1.966,0.249c0.821,0.298,1.242,1.044,1.242,2.114c0,0.721-0.245,1.343-0.672,1.741
		c-0.472,0.423-1.117,0.572-2.609,0.572h-1.169V6.793L216.463,6.793z"/>
	<path fill="#FFFFFF" d="M226.912,10.077l1.417,2.388c1.366-0.921,2.612-1.443,3.683-1.443c1.221,0,1.491,0.473,1.491,1.89v0.522
		c-0.271-0.024-0.497-0.024-0.745-0.024c-4.058,0-6.121,1.394-6.121,4.377c0,2.538,1.541,3.98,4.381,3.98
		c1.043,0,1.938-0.249,2.561-0.696c0.251-0.174,0.521-0.423,0.771-0.672c0.323,0.648,1.021,1.219,1.789,1.542l1.771-2.04
		c-0.974-0.72-1.195-1.243-1.195-2.611c0-0.075,0-0.149,0-0.224l0.075-4.279c0.023-1.367-0.049-1.766-0.225-2.289
		c-0.498-1.418-1.967-2.214-4.104-2.214c-1.17,0-2.238,0.224-3.482,0.746C228.081,9.404,227.582,9.653,226.912,10.077
		L226.912,10.077z M233.454,15.723l-0.052,2.737c-0.496,0.547-1.117,0.87-1.738,0.87c-0.846,0-1.473-0.671-1.473-1.666
		c0-1.519,0.799-1.941,3.11-1.941H233.454L233.454,15.723z"/>
	<path fill="#FFFFFF" d="M246.982,8.559l-3.26,5.522L248,21.295h3.932l-5-7.412l4.055-5.324H246.982L246.982,8.559z M240.094,3.633
		c0.197,1.318,0.221,2.19,0.221,3.309v14.353h3.336V6.942c0-1.692-0.049-3.185-0.199-4.129L240.094,3.633L240.094,3.633z"/>
	<path fill="#E56B1F" d="M26.294,2.905h2.4v25.664c-1.578,3.869-6.928,17.105-6.964,20.222c-0.047,4.307,2.834,7.604,6.327,9.575
		l0.637,0.341l-0.001,7.803h-2.411v-6.611c-2.844-0.293-16.307-2.133-16.307-7.646c0-8.76,9.96-20.643,16.319-26.488V2.905
		L26.294,2.905z M30.511,2.905h2.422V66.51h-2.422v-8.988c-3.42-1.41-7.012-4.414-6.962-8.707
		c0.029-2.651,5.737-16.898,6.962-19.888V2.905L30.511,2.905z M37.163,2.905v23.182c2.025,4.202,8.372,17.841,8.538,21.677
		c0.056,1.317-1.466,2.659-3.708,3.797c-2.071,1.045-4.83,1.805-4.83,1.805V66.51h-2.412V2.905H37.163L37.163,2.905z M38.98,2.905
		h2.42V23.97c4.674,4.789,16.141,17.72,16.643,24.13c0.481,6.164-8.5,9.402-13.263,10.656c-1.57,0.418-3.377,0.729-3.377,0.729
		v7.024h-2.421L38.98,54.73c2.936-0.938,8.696-3.276,8.535-7.045c-0.181-4.199-6.337-17.417-8.535-22.015V2.905L38.98,2.905z
		 M43.216,2.905h22.373L65.59,66.51H43.208l0.007-5.513c6.205-1.308,17.258-5.119,16.637-13.038
		C59.31,41.031,48.26,28.494,43.215,23.233L43.216,2.905L43.216,2.905z M2,2.905h22.476v22.066
		c-6.76,6.422-16.318,18.025-16.318,27.281c0,6.373,11.523,8.623,16.306,9.27v4.988L2,66.494V2.905L2,2.905z"/>
</g>
</svg>
